<svg width="152" height="152" fill="none" xmlns="http://www.w3.org/2000/svg"><circle cx="76" cy="76" r="76" fill="#BABFD4"/><ellipse cx="76" cy="80" rx="76" ry="72" fill="url(#a)"/><path d="M105.529 56.323a3.977 3.977 0 0 0-1.682-.27c-.777.054-1.405.371-1.777.89-2.192 3.084-3.987 8.907-5.434 13.586-.664 2.164-1.556 5.06-2.202 6.434-.673-3.85.088-17.955.383-23.387l.005-.087c.204-3.774.232-4.436.187-4.727-.325-2.07-1.151-3.428-2.456-4.037-1.319-.617-3.032-.344-4.877.772-.926.562-1.182 2.49-1.976 11.234l-.003.039c-.437 4.803-1.443 15.864-2.682 17.706-1.398-2.577-3.32-17.22-4.15-23.557-.58-4.44-.92-6.988-1.146-7.757-.48-1.613-2.5-2.985-4.501-3.061-1.666-.083-3.032.768-3.684 2.246-1.22 1.364-.79 5.887.56 16.6.641 5.098 1.966 15.63 1.132 16.81-1.662-.18-4.517-6.777-8.486-19.611-1.113-3.595-1.458-4.676-1.8-5.149-.674-1.648-2.965-2.92-5.019-2.776a4.353 4.353 0 0 0-.514.068c-1.075.214-3.529 1.208-3.006 5.796 1.45 6.36 3.023 11.03 4.55 15.562l.031.09c.914 2.716 1.778 5.28 2.58 8.128 1.893 6.72 1.157 10.891 1.148 10.938-.063.43-.195.691-.394.783a.755.755 0 0 1-.266.06c-.6.043-1.499-.356-1.962-.616-1.059-2.032-6.33-11.72-11.107-13.063l-.172-.05-.173.015c-1.752.167-3.04.832-3.828 1.977-1.247 1.811-.731 4.118-.606 4.58l.07.166c.04.07 3.87 7.085 4.463 10.348.511 2.797 3.157 5.83 5.283 8.265l.088.099c.693.797 1.292 1.486 1.764 2.124 6.17 6.464 15.929 11.902 16.008 11.946 1.218.902 1.895 1.774 1.966 2.525.046.491-.208.785-.217.795l-.213.222 1.35 1.317 25.744-1.816 1.098-5.052c3.394-14.269 2.685-26.434 2.674-26.516.012-.447.964-4.776 1.729-8.273l.022-.09c1.525-6.966 3.422-15.635 3.785-18.932.159-1.41-.739-2.705-2.287-3.294Z" fill="#3B4262"/><defs><linearGradient id="a" x1="150.74" y1="152" x2="150.74" y2="10.387" gradientUnits="userSpaceOnUse"><stop stop-color="#F3F3F3"/><stop offset="1" stop-color="#DADADA"/></linearGradient></defs></svg>