<svg width="152" height="152" fill="none" xmlns="http://www.w3.org/2000/svg"><circle cx="76" cy="76" r="76" fill="#BABFD4"/><ellipse cx="76" cy="80" rx="76" ry="72" fill="url(#a)"/><path d="M105.441 65.085c-.877-11.104-13.292-9.97-13.292-9.97-5.24-9.278-13.427-2.558-13.427-2.558-6.289-9.093-14.174-.667-14.174-.667-13.596-1.472-13.069 9.693-13.069 9.693-.32 3.549 1.916 14.53 1.916 14.53-2.017-6.33-6.392-1.076-6.392-1.076-5.378 8.337-1.33 12.9-1.33 12.9 7.278 8.567 22.788 18.85 22.788 18.85 5.616 3.231 3.24 6.113 3.24 6.113l33.968-5.638.781-6.47c5.164-15.687-1.009-35.707-1.009-35.707Z" fill="#3B4262"/><defs><linearGradient id="a" x1="150.74" y1="152" x2="150.74" y2="10.387" gradientUnits="userSpaceOnUse"><stop stop-color="#F3F3F3"/><stop offset="1" stop-color="#DADADA"/></linearGradient></defs></svg>