<svg width="152" height="152" fill="none" xmlns="http://www.w3.org/2000/svg"><circle cx="76" cy="76" r="76" fill="#BABFD4"/><ellipse cx="76" cy="80" rx="76" ry="72" fill="url(#a)"/><path d="m56.16 75.35 8.21-11.544c-3.413-.568-9.679-.694-14.812 4.438-8.09 8.09-11.367 25.569-12.05 29.8l20.563 20.562c3.701-.317 20.09-2.505 35.883-18.297.168-.341 4.014-3.183.87-6.329-1.502-1.5-3.987-1.473-5.52.061-.782.78-1.996.792-2.76.028-.765-.765-.754-1.98.027-2.76l5.58-5.58c2.836-2.837.163-7.62-3.795-6.471l-4.568 3.91a1.958 1.958 0 0 1-2.76-.19c-.71-.821-.558-2.063.249-2.763C97.235 66.213 94.906 67.9 105.173 58.276c3.836-3.194-.99-8.843-4.77-5.609L75.566 75.004c-.723.615-1.83.627-2.541-.028-.82-.709-.84-1.73-.303-2.537l17.324-26.933c2.533-3.43-2.451-7.238-5.119-3.78L59.312 77.55c-.618.893-1.863 1.098-2.711.473-.851-.571-1.084-1.811-.441-2.674Z" fill="#3B4262"/><defs><linearGradient id="a" x1="150.74" y1="152" x2="150.74" y2="10.387" gradientUnits="userSpaceOnUse"><stop stop-color="#F3F3F3"/><stop offset="1" stop-color="#DADADA"/></linearGradient></defs></svg>